<svg width="133" height="41" viewBox="0 0 133 41" fill="none" xmlns="http://www.w3.org/2000/svg">
<path d="M40.2967 0.619019V11.9113C40.2967 12.1807 40.8471 12.9551 41.1507 12.9551H56.808C55.3581 10.1064 55.7509 5.80775 58.9545 4.37867C61.8791 3.07294 65.447 5.09606 65.7355 8.29963C66.0525 11.8069 65.0067 14.5815 61.2756 15.2401L41.1564 15.2268C40.3005 15.0048 39.4085 14.6442 38.879 13.8983C38.7746 13.7503 38.209 12.7406 38.209 12.6704V0.619019H40.2967ZM62.8356 12.3402C63.8206 11.3552 63.9269 8.54066 63.236 7.38107C62.1334 5.53066 59.1803 5.7641 58.4155 7.82707C57.6734 9.8312 58.2238 12.8716 60.7442 13.1145C61.2357 13.1619 62.4883 12.6875 62.8337 12.3421L62.8356 12.3402Z" fill="#454545"/>
<path d="M27.9606 12.9551H33.1797C33.2651 12.9551 33.844 12.1921 33.844 12.101V4.6045H35.9316V12.6704C35.9316 12.8203 35.4059 13.6971 35.256 13.8926C33.6314 16.0277 30.2969 14.9877 27.9663 15.2382C27.8695 16.5648 26.6378 18.1438 25.482 18.7321C25.3188 18.8156 24.3262 19.218 24.2598 19.218H19.9896V17.1303H23.6905C23.8024 17.1303 24.6565 16.6957 24.833 16.5648C25.2106 16.2839 25.6699 15.7278 25.6832 15.2325H22.5517C22.4663 15.2325 21.1891 14.796 20.9936 14.703C19.9251 14.2019 18.8092 12.788 18.5587 11.6342C18.3233 10.5543 18.348 7.73216 18.8111 6.74528C20.3275 3.52082 25.019 3.02169 27.1009 5.93679C27.247 6.14176 27.9606 7.6088 27.9606 7.73406V12.9532V12.9551ZM25.873 13.1448V8.11553C25.873 8.07947 25.6339 7.53668 25.5845 7.45508C24.3775 5.52875 21.4434 5.68438 20.6501 7.82516C20.1035 9.29789 20.2667 11.5924 21.6009 12.5774C21.7774 12.7083 22.6296 13.1429 22.7434 13.1429H25.8749L25.873 13.1448Z" fill="#454545"/>
<path d="M18.8509 39.1454H16.7633L16.6684 38.1965C16.3818 38.2041 15.4215 38.9879 14.928 39.1131C14.0455 39.3371 13.0321 39.3504 12.1591 39.1018C11.1627 38.8171 10.2138 38.0655 10.1132 36.9724C9.93479 35.0195 10.4301 33.7289 12.3906 33.1615C13.442 32.8559 15.617 32.8825 16.3799 32.4061C17.3459 31.8026 16.6095 30.1439 15.3475 30.03C13.8368 29.8934 12.402 30.1287 12.3963 31.9355H10.5003C10.1701 30.2084 11.8118 28.5478 13.4477 28.3371C14.1366 28.2479 15.7612 28.2555 16.4387 28.3694C17.1163 28.4833 17.8792 29.009 18.2834 29.5612C18.4524 29.7909 18.849 30.7018 18.849 30.8935V39.1492L18.8509 39.1454ZM16.9531 34.0212C15.7821 34.4748 12.3811 34.2015 12.0528 35.6685C11.7245 37.1356 12.9372 37.741 14.2088 37.6347C16.1939 37.4677 17.215 35.9456 16.9531 34.0231V34.0212Z" fill="#454545"/>
<path d="M65.9177 39.3352H64.0199V38.1965C62.0252 39.8021 57.9505 40.1228 57.2749 37.0654C56.8612 35.1922 57.8575 33.8675 59.6036 33.3057C60.7859 32.9243 62.6952 33.1141 63.7143 32.5143C64.0085 32.3416 64.0578 31.6243 63.9895 31.3016C63.6555 29.7492 60.3096 29.6372 59.7421 31.1669C59.6491 31.4174 59.6927 31.7476 59.5694 31.9431C59.3397 32.3075 58.0416 32.0494 57.5672 32.1234C57.5766 30.7569 58.2599 29.4436 59.52 28.8572C60.8315 28.248 63.0766 28.1872 64.388 28.8135C64.6936 28.9597 65.356 29.4702 65.5457 29.7435C65.6254 29.8555 65.9177 30.4685 65.9177 30.5102V39.3352ZM64.0199 34.211C62.9533 34.5906 59.4897 34.3856 59.2733 35.8204C58.8748 38.4622 62.5908 38.1643 63.7295 36.4828C64.204 35.7825 63.9781 35.0176 64.0199 34.2129V34.211Z" fill="#454545"/>
<path d="M0.251953 24.9115H9.55144V26.8094H2.33959V30.7948H8.60251V32.6927H2.33959V39.1454H0.251953V24.9115Z" fill="#454545"/>
<path d="M3.99073 4.45267C8.57785 3.67076 10.3827 7.28237 9.92153 11.3324C9.43188 15.65 3.67 16.9425 1.11169 13.327C0.284224 12.158 0.295611 9.70783 0.434155 8.29773C0.603064 6.57447 2.28646 4.74305 3.99073 4.45267ZM4.94725 6.34673C2.36237 6.70922 1.82338 9.66228 2.68121 11.7594C3.70985 14.276 7.57768 13.756 7.85097 10.968C7.97053 9.75338 7.95535 7.93334 6.99693 7.06222C6.59459 6.69594 5.47675 6.27082 4.94725 6.34483V6.34673Z" fill="#454545"/>
<path d="M32.0847 28.3713C34.7682 28.0828 37.1766 30.1249 37.4423 32.7952C37.8655 37.054 35.7817 39.9065 31.2876 39.3295C27.3628 38.8247 26.3038 33.04 28.4446 30.2369C29.4011 28.9843 30.5474 28.5383 32.0828 28.3732L32.0847 28.3713ZM32.2764 30.0699C30.7979 30.2711 29.6782 31.2864 29.4846 32.7933C29.1354 35.511 29.9629 38.094 33.1778 37.6253C35.33 37.3102 35.6925 34.1446 35.33 32.4403C35.2731 32.1708 34.7967 31.3225 34.6069 31.0758C34.1059 30.4267 33.0735 29.9598 32.2783 30.0699H32.2764Z" fill="#454545"/>
<path d="M43.4718 28.3731C45.5955 28.1321 47.8236 29.2746 48.6055 31.3129C49.5145 33.6833 49.1293 37.1127 46.9335 38.6652C45.8877 39.4054 44.1057 39.4889 42.8664 39.3294C37.7535 38.6728 37.2126 29.0829 43.4737 28.3731H43.4718ZM43.6559 30.0717C42.4469 30.2881 41.3917 31.2522 41.0881 32.4421C40.8698 33.2962 40.9059 34.5582 41.0881 35.4142C41.2703 36.2701 42.2078 37.405 43.0808 37.5967C46.3508 38.3122 47.2808 35.5015 46.9316 32.797C46.7323 31.2427 45.2785 29.7832 43.6559 30.0755V30.0717Z" fill="#454545"/>
<path d="M24.1649 25.8605V28.7073H26.2526C26.4974 30.7418 25.8863 30.4552 24.1649 30.4153L24.1839 37.1337C24.3395 37.6765 25.7572 37.3558 26.2526 37.4374L26.2393 39.1341C25.2695 39.5004 23.2141 39.4852 22.5536 38.5742C22.4625 38.4489 22.0754 37.5911 22.0754 37.5342V30.4172H20.3673V28.7092H22.0754L22.1608 26.612L24.163 25.8624L24.1649 25.8605Z" fill="#454545"/>
<path d="M15.8144 4.60449V14.9478C15.8144 15.2211 15.1634 16.6407 14.9546 16.9349C13.9772 18.3013 11.844 19.7627 10.1208 19.5975V17.5118C11.3373 17.4814 12.8575 16.4471 13.3889 15.3691C13.4553 15.2344 13.7267 14.6119 13.7267 14.5682V4.60449H15.8144Z" fill="#454545"/>
<path d="M51.1144 28.7072H53.0123L53.1072 30.0357C54.0846 28.7641 55.2309 28.3827 56.808 28.3276V30.4153C55.0278 30.1629 53.4412 31.1289 53.2078 32.9831C53.1338 33.5695 53.037 34.4824 53.0047 35.0574C52.9288 36.4049 53.0749 37.796 53.0123 39.1454H51.1144V28.7072Z" fill="#454545"/>
<path d="M132.912 10.4878V11.0571C132.692 11.2735 132.559 11.7062 132.437 12.0061C129.75 18.7112 127.241 25.9762 124.279 32.5048C122.868 35.6097 120.658 38.0295 117.482 39.3731L115.452 40.0943H94.7651C95.2965 38.6766 95.9949 37.3197 96.5699 35.9209C96.7635 35.4522 97.0235 34.9056 97.0425 34.4008C101.28 34.4102 106.49 34.7632 110.605 34.3932C115.235 33.9775 118.773 30.6126 120.614 26.5626C122.91 21.5086 125.154 15.6196 127.218 10.4878H132.912Z" fill="#55A65C"/>
<path d="M93.2468 29.2766C89.2651 29.2766 85.2739 29.2766 81.2903 29.2766L82.634 25.6859L88.2972 25.6555L89.7509 22.6247L96.0784 22.619L97.8016 18.0793H80.7209L82.5429 14.1128L91.6184 14.1033L93.2601 10.8826L100.445 10.8561L102.165 6.50239H88.1207C88.3048 5.32382 89.174 4.29139 89.4644 3.10143L93.8883 3.06537L95.6172 0.0496826H124.559C124.592 0.267936 124.546 0.429253 124.476 0.630426C124.022 1.91907 123.379 3.32348 122.851 4.60453C120.582 10.1292 118.331 16.0334 115.867 21.4385C111.466 31.0948 102.169 29.2804 93.2449 29.2766H93.2468Z" fill="url(#paint0_linear_6871_6656)"/>
<path d="M122.853 4.60449H129.306C128.754 6.40556 127.949 8.11932 127.253 9.86534C127.171 10.0722 127.262 10.3797 127.218 10.4878C125.154 15.6196 122.91 21.5087 120.614 26.5627C118.773 30.6127 115.235 33.9776 110.605 34.3932C106.49 34.7633 101.28 34.4084 97.0425 34.4008C95.0839 34.397 93.1178 34.4046 91.1592 34.4008L93.2468 29.2766C102.171 29.2804 111.468 31.0947 115.869 21.4385C118.333 16.0334 120.584 10.1291 122.853 4.60449Z" fill="#0751A5"/>
<path d="M85.4656 34.9701L84.6116 36.6782H72.5602L73.4142 34.9701H85.4656Z" fill="#599F5C"/>
<path d="M80.1516 26.8093C80.292 26.9479 79.7853 28.358 79.4874 28.5174H71.2317C71.2583 27.9234 71.4784 27.2363 71.8959 26.8093H80.1516Z" fill="#599F5C"/>
<path d="M87.3635 4.79431C87.576 5.00497 86.8283 6.33727 86.5094 6.50238H80.1516L80.9108 4.79431H87.3635Z" fill="#599F5C"/>
<path d="M80.721 14.2836L80.0567 16.1814H74.6478C74.6099 15.5381 74.9458 14.7884 75.3121 14.2836H80.721Z" fill="#599F5C"/>
<path d="M90.7796 9.53894L90.2102 11.247H84.5167L85.3707 9.53894H90.7796Z" fill="#599F5C"/>
<path d="M84.7064 21.4954C84.8469 21.6339 84.3401 23.044 84.0422 23.2034H79.9618L80.626 21.4954H84.7064Z" fill="#599F5C"/>
<path d="M60.543 0.083787C61.1921 -0.0585521 61.7481 -0.0471649 62.0955 0.550659C62.9571 2.02719 61.249 3.23043 60.1179 2.33844C59.3474 1.73112 59.5447 0.303938 60.543 0.083787Z" fill="#454545"/>
<path d="M35.294 0.645513C36.0854 0.417771 37.0362 0.615148 37.2298 1.50524C37.7042 3.68398 34.1609 3.68208 34.6354 1.50524C34.6923 1.24524 35.0377 0.719529 35.294 0.645513Z" fill="#454545"/>
<path d="M5.68741 0.645513C6.47882 0.417771 7.42964 0.615148 7.62323 1.50524C8.09769 3.68398 4.5544 3.68208 5.02886 1.50524C5.08579 1.24524 5.4312 0.719529 5.68741 0.645513Z" fill="#454545"/>
<path d="M33.8117 0.842945C33.8668 0.897983 34.2236 1.74443 34.2236 1.85071C34.2236 3.7106 30.9384 3.5341 31.595 1.30982C31.8228 0.537391 33.3581 0.379869 33.8117 0.842945Z" fill="#454545"/>
<path d="M4.2052 0.840992C4.51265 1.14844 4.51265 2.55665 4.2052 2.8641C3.99074 3.07856 3.13101 3.1374 2.81028 3.08995C1.78733 2.93432 1.60324 1.17691 2.5256 0.711938C2.8805 0.533539 3.94519 0.582884 4.2052 0.84289V0.840992Z" fill="#454545"/>
<defs>
<linearGradient id="paint0_linear_6871_6656" x1="124.57" y1="14.732" x2="80.7209" y2="14.732" gradientUnits="userSpaceOnUse">
<stop stop-color="#418AAC"/>
<stop offset="1" stop-color="#599F5C"/>
</linearGradient>
</defs>
</svg>
